<?xml version="1.0" standalone="no"?>
<!DOCTYPE svg PUBLIC "-//W3C//DTD SVG 20010904//EN"
 "http://www.w3.org/TR/2001/REC-SVG-20010904/DTD/svg10.dtd">
<svg version="1.0" xmlns="http://www.w3.org/2000/svg"
 width="500.000000pt" height="500.000000pt" viewBox="0 0 500.000000 500.000000"
 preserveAspectRatio="xMidYMid meet">
<metadata>
Created by potrace 1.14, written by Peter Selinger 2001-2017
</metadata>
<g transform="translate(0.000000,500.000000) scale(0.100000,-0.100000)"
fill="#000000" stroke="none">
<path d="M2545 4943 c8 -27 14 -49 14 -51 0 -1 3 -17 6 -35 11 -56 13 -71 20
-132 12 -112 14 -150 14 -295 1 -205 -15 -403 -44 -561 -2 -9 -6 -34 -9 -55
-37 -230 -135 -524 -175 -524 -13 0 -28 53 -36 120 -17 159 -40 259 -84 361
-88 203 -221 323 -422 379 -41 11 -94 20 -119 20 l-45 -1 30 -16 c99 -54 174
-228 177 -415 4 -205 -57 -395 -191 -594 -62 -91 -69 -99 -176 -209 -106 -109
-168 -161 -330 -275 -134 -94 -288 -241 -354 -339 -95 -141 -166 -322 -188
-481 -13 -100 -6 -430 11 -458 2 -4 7 -32 10 -62 4 -30 12 -91 20 -135 7 -44
11 -86 8 -93 -3 -11 -72 67 -72 83 0 3 -16 28 -35 55 -19 27 -35 52 -35 54 0
2 -25 45 -55 95 -30 51 -55 94 -55 96 0 2 -15 30 -34 61 l-35 57 5 -54 c4 -50
16 -131 30 -204 35 -194 125 -424 224 -572 250 -373 623 -583 1183 -664 48 -7
87 -18 88 -24 1 -5 0 -25 -1 -42 l-2 -33 327 0 327 0 -7 33 c-4 17 -8 36 -9
41 0 6 24 13 54 18 30 4 91 15 135 23 44 8 91 17 104 20 127 24 362 122 491
206 287 185 485 474 579 846 24 92 26 106 46 243 30 202 33 477 10 729 -8 94
-25 232 -31 261 -14 63 -13 317 1 383 18 80 58 163 92 191 24 19 25 20 7 33
-24 18 -89 36 -139 38 -95 5 -213 -60 -281 -156 -20 -27 -37 -49 -38 -49 -1 0
1 26 4 58 8 65 5 337 -3 397 -4 22 -9 67 -12 100 -17 175 -94 456 -170 620
-19 42 -33 76 -32 78 1 1 -8 16 -21 34 -12 17 -22 34 -22 38 0 15 -116 194
-184 284 -81 109 -258 291 -361 373 -81 64 -203 148 -216 148 -4 0 -2 -21 6
-47z"/>
</g>
</svg>
